<svg xmlns="http://www.w3.org/2000/svg" version="1.1" id="Layer_1" viewBox="0 0 1920 1080" width="1920" height="1080"><metadata><rdf:RDF xmlns:rdf="http://www.w3.org/1999/02/22-rdf-syntax-ns#" xmlns:dc="http://purl.org/dc/elements/1.1/"><rdf:Description><dc:creator>RealFaviconGenerator</dc:creator><dc:source>https://realfavicongenerator.net</dc:source></rdf:Description></rdf:RDF></metadata><defs>
    <style>
      .st0 {
        fill: #fefdfd;
      }

      .st1 {
        stroke: #fff;
        stroke-miterlimit: 10;
      }

      .st1, .st2 {
        fill: #e83a33;
      }

      .st3 {
        fill: #172b84;
      }
    </style>
  </defs><g>
    <path class="st2" d="M430.83,153.55s0-.01,0-.02c-4.49,1.49-8.96,2.99-13.4,4.52l13.4-4.5Z"></path>
    <path class="st2" d="M1504.91,158.87c-4.58-1.59-9.19-3.16-13.83-4.7,0,0,0,0,0,.01l13.84,4.69Z"></path>
    <path class="st2" d="M587.53,846.38c-67.03-14.96-129.22-34.05-184.68-56.99-156.06-64.54-242.01-153.03-242.01-249.15s85.95-184.61,242.01-249.15c14.83-6.14,30.17-11.98,45.93-17.57l-37.99-113.15c-18.38,6.46-36.27,13.25-53.56,20.4-92.8,38.38-166.66,85.44-219.53,139.87-62.95,64.81-96.23,140.74-96.23,219.59s33.27,154.78,96.23,219.59c52.87,54.43,126.73,101.49,219.53,139.87,61.49,25.43,130.17,46.56,203.93,63.02l26.37-116.34Z"></path>
    <path class="st2" d="M1782.3,320.64c-52.87-54.43-126.73-101.49-219.53-139.87-16.3-6.74-33.13-13.17-50.4-19.3l-38.3,113.04c14.76,5.28,29.13,10.8,43.07,16.57,156.06,64.54,242.01,153.03,242.01,249.15s-85.95,184.61-242.01,249.15c-55.39,22.91-117.5,41.99-184.44,56.94l26.38,116.34c73.66-16.46,142.26-37.56,203.68-62.96,92.8-38.38,166.66-85.44,219.53-139.87,62.95-64.81,96.23-140.74,96.23-219.59s-33.27-154.78-96.23-219.59Z"></path>
  </g><ellipse class="st3" cx="960" cy="540.24" rx="774.7" ry="320.4"></ellipse><path class="st0" d="M964.7,928.45c-5.17,3.87-11.27,4.31-17.48,3.68l-.73-25.9c9.95-1.77,19.75.95,21.97,8.79,1.32,4.69.67,10.11-3.76,13.43Z"></path><path class="st0" d="M1220.4,596.23l113.03,181.62-63.67,15.94-126.58-198.52-.41,214.83-67.33,5.41-.04-549.62c60.53.33,123.2.9,178.86,25.36,75.23,36.78,98.16,98.21,85.61,179.52-12.58,60.04-59.96,106.92-119.48,125.45ZM1280.64,433.27c.36-23.38-7.63-43.43-21.94-60.49-28.55-33.23-73.41-44.46-117.17-43.5v214.58c47.1,2.51,89.02-10.97,118.76-47.27,12.69-18.68,19.69-39.64,20.35-63.32Z"></path><polygon class="st0" points="774.25 808.44 710.06 799.85 710.04 281.47 775.08 272.07 775.21 541.07 917.55 541.08 917.56 261.37 980.84 261.35 980.87 817.92 918.45 818.01 918.48 601.66 774.25 601.64 774.25 808.44"></polygon><polygon class="st0" points="411 723.45 351.91 695.42 351.94 383.8 420.47 352.62 547.35 595.47 547.54 315.33 609.92 299.12 609.93 782.92 550.58 767.98 493.67 653.33 411.47 488.75 411 723.45"></polygon><path class="st0" d="M1552.4,700.92l-22.42-86.92-76.52-.09-21.28,134.75-63.02,19.95,69.91-440.7,27.9,9.15,55.56,20.62,88.42,310.25-58.55,32.98ZM1514.95,558.45l-32.65-119.72-19.16,119.82,51.81-.09Z"></path><path class="st1" d="M538.17,150.01l23.14,90.1-30.03,7.71-23.14-90.1-24.67,6.33-6.53-25.44,79.38-20.38,6.53,25.44-24.67,6.33Z"></path><path class="st1" d="M646.96,127.32l-36.2,6.94,3.75,19.58,34.18-6.55,4.94,25.79-34.18,6.55,3.87,20.2,36.2-6.94,4.94,25.79-66.66,12.78-22.46-117.15,66.66-12.78,4.94,25.79Z"></path><path class="st1" d="M759.89,125.53c-8.24-7.76-17.58-10.97-28.04-9.61-4.6.6-8.76,1.99-12.46,4.16-3.71,2.18-6.79,4.89-9.24,8.13-2.45,3.24-4.23,6.96-5.34,11.14-1.11,4.19-1.36,8.58-.77,13.18.61,4.71,1.98,8.94,4.12,12.71,2.13,3.77,4.83,6.93,8.09,9.48,3.25,2.56,6.92,4.42,11.01,5.59,4.09,1.17,8.38,1.47,12.88.89,9.83-1.27,18.13-6.6,24.89-15.98l4.71,36.4-3,1.5c-4.49,2.28-8.72,4.08-12.7,5.39-3.98,1.31-7.95,2.22-11.93,2.74-8.16,1.06-16.18.52-24.06-1.59-7.88-2.12-15.03-5.61-21.45-10.47-6.43-4.86-11.86-10.91-16.3-18.15s-7.26-15.41-8.43-24.51c-1.18-9.1-.56-17.66,1.86-25.68,2.42-8.02,6.12-15.15,11.11-21.38,4.99-6.23,11.05-11.37,18.18-15.43,7.13-4.06,14.83-6.62,23.09-7.69,4.71-.61,9.4-.71,14.08-.3,4.68.41,9.66,1.33,14.95,2.77l4.75,36.71Z"></path><path class="st1" d="M819.34,126.98l44.69-2.68-2.75-45.95,30.95-1.85,7.13,119.07-30.95,1.85-2.94-49.11-44.69,2.68,2.94,49.11-30.95,1.85-7.13-119.07,30.95-1.85,2.75,45.95Z"></path><path class="st1" d="M922.4,194.83l1.35-119.28,31.01.35,56.44,73.58.83-72.93,30.85.35-1.35,119.28-30.85-.35-56.44-73.58-.82,72.93-31.01-.35Z"></path><path class="st1" d="M1103.55,81.1l-7.55,119.05-30.95-1.96,7.55-119.05,30.95,1.96Z"></path><path class="st1" d="M1213.65,131.89c-6.19-9.47-14.53-14.78-25.01-15.91-4.62-.5-8.98-.12-13.09,1.13-4.11,1.25-7.74,3.17-10.88,5.75-3.14,2.58-5.74,5.77-7.8,9.58-2.06,3.81-3.33,8.02-3.83,12.63-.51,4.72-.17,9.16,1.03,13.32,1.19,4.16,3.07,7.87,5.64,11.11,2.56,3.25,5.7,5.92,9.4,8.02,3.7,2.1,7.8,3.39,12.31,3.88,9.86,1.07,19.17-2.17,27.94-9.71l-3.95,36.49-3.26.76c-4.9,1.17-9.44,1.92-13.61,2.27-4.17.34-8.25.3-12.24-.13-8.18-.88-15.85-3.28-23.01-7.18-7.16-3.9-13.3-8.97-18.41-15.2-5.11-6.23-8.98-13.38-11.6-21.46-2.63-8.08-3.45-16.68-2.46-25.81.99-9.12,3.59-17.3,7.82-24.53,4.23-7.23,9.5-13.29,15.81-18.18,6.31-4.89,13.41-8.47,21.29-10.75,7.88-2.28,15.97-2.97,24.25-2.07,4.72.51,9.3,1.51,13.76,3,4.45,1.49,9.08,3.56,13.89,6.2l-3.98,36.81Z"></path><path class="st1" d="M1301.1,206.16l-43.59-7.91-10.71,19.12-32.53-5.9,65.98-109.26,33.31,6.05,23.37,125.48-32.53-5.9-3.3-21.66ZM1297.21,181.5l-6.61-41.56-20.79,36.58,27.4,4.97Z"></path><path class="st1" d="M1407.97,129.61l-23.35,90.05,35.99,9.33-6.59,25.42-66-17.11,29.94-115.47,30.02,7.78Z"></path><path class="st1" d="M697.65,896.29c-2.39-3.19-4.9-5.67-7.53-7.45-2.63-1.78-5.28-2.9-7.95-3.35-3.38-.57-6.3-.1-8.75,1.41-2.45,1.51-3.93,3.77-4.45,6.79-.35,2.08-.11,3.89.73,5.42.84,1.53,2.04,2.94,3.61,4.22,1.57,1.28,3.38,2.47,5.44,3.57,2.06,1.1,4.08,2.24,6.08,3.44,7.98,4.78,13.48,10.28,16.5,16.51,3.02,6.23,3.77,13.82,2.26,22.77-1.02,6.03-2.81,11.34-5.38,15.94-2.56,4.6-5.81,8.35-9.74,11.27-3.93,2.92-8.48,4.93-13.65,6.03-5.18,1.1-10.83,1.13-16.97.09-12.73-2.16-23.77-8.57-33.13-19.25l15.39-22.75c3.23,4.72,6.59,8.39,10.08,11.01,3.49,2.62,7.11,4.25,10.84,4.88,4.27.72,7.65.12,10.13-1.81,2.48-1.93,3.96-4.36,4.46-7.27.3-1.77.29-3.35-.02-4.74-.31-1.39-1-2.74-2.06-4.04-1.06-1.3-2.51-2.59-4.36-3.87-1.84-1.28-4.09-2.72-6.75-4.35-3.17-1.82-6.25-3.76-9.25-5.82-2.99-2.06-5.55-4.55-7.66-7.47-2.11-2.92-3.63-6.42-4.54-10.48-.92-4.06-.88-9,.11-14.82.99-5.82,2.7-10.96,5.15-15.41,2.45-4.45,5.45-8.12,9-10.99,3.55-2.87,7.65-4.88,12.28-6.02,4.63-1.14,9.62-1.26,14.96-.35,4.98.84,10.05,2.53,15.21,5.06,5.15,2.53,9.96,5.78,14.42,9.74l-14.45,22.1Z"></path><path class="st1" d="M785.94,903.23l-31.33-3.68-2.32,19.8,29.58,3.47-3.06,26.08-29.58-3.47-2.4,20.43,31.33,3.68-3.06,26.08-57.69-6.77,13.9-118.47,57.69,6.77-3.06,26.08Z"></path><path class="st1" d="M882.3,1003.49l-32.96-2.2-22.21-47.46-3.05,45.78-26.48-1.76,7.93-119.02,41.2,2.74c5.67.38,10.56,1.68,14.67,3.91,4.1,2.23,7.41,5.12,9.94,8.67,2.52,3.55,4.33,7.58,5.44,12.1,1.1,4.51,1.48,9.3,1.15,14.35-.6,9.05-2.96,16.27-7.07,21.65s-9.88,8.83-17.31,10.34l28.77,50.91ZM828.46,933.79l5,.33c5.22.35,9.32-.65,12.28-2.99,2.96-2.34,4.6-5.88,4.91-10.61.32-4.73-.84-8.46-3.46-11.17-2.62-2.71-6.55-4.24-11.77-4.59l-5-.33-1.96,29.36Z"></path><path class="st1" d="M912.9,884.73l23.73,72.92,25.68-72.3,28.84.36-44.54,118.74-21.12-.26-41.43-119.81,28.84.36Z"></path><path class="st1" d="M1026.25,884l3.54,119.23-26.53.79-3.54-119.23,26.52-.79Z"></path><path class="st1" d="M1121.8,918.23c-6.72-8.31-14.58-12.17-23.59-11.55-3.96.27-7.57,1.37-10.84,3.28-3.26,1.91-6.01,4.4-8.24,7.46-2.23,3.06-3.91,6.64-5.04,10.73-1.12,4.1-1.53,8.46-1.21,13.09.32,4.73,1.32,9.05,2.99,12.96,1.67,3.9,3.84,7.25,6.52,10.02,2.68,2.78,5.74,4.89,9.19,6.35,3.45,1.46,7.11,2.05,10.98,1.79,8.46-.58,15.79-5.3,21.97-14.19l2.5,36.62-2.63,1.29c-3.94,1.96-7.63,3.46-11.09,4.48s-6.9,1.66-10.32,1.89c-7.02.48-13.86-.61-20.51-3.28-6.65-2.66-12.62-6.64-17.92-11.94-5.29-5.29-9.69-11.71-13.19-19.24s-5.56-15.87-6.19-25.03c-.63-9.15.27-17.64,2.67-25.48,2.4-7.83,5.87-14.67,10.4-20.53,4.53-5.86,9.93-10.56,16.2-14.11,6.27-3.54,12.96-5.56,20.08-6.05,4.05-.28,8.07-.05,12.06.68,3.99.73,8.21,2,12.68,3.81l2.52,36.93Z"></path><path class="st1" d="M1194.15,896.18l-31.33,3.68,2.32,19.8,29.58-3.47,3.06,26.08-29.58,3.47,2.4,20.43,31.33-3.68,3.06,26.08-57.69,6.77-13.91-118.47,57.69-6.77,3.06,26.08Z"></path><path class="st1" d="M1267.85,888.58c-3.31-2.22-6.49-3.74-9.56-4.56-3.07-.82-5.94-1-8.61-.55-3.38.57-5.98,1.98-7.8,4.21-1.82,2.23-2.47,4.86-1.96,7.87.35,2.08,1.18,3.71,2.47,4.88,1.3,1.17,2.9,2.11,4.8,2.8,1.9.7,4,1.22,6.31,1.58,2.3.36,4.59.77,6.87,1.24,9.11,1.88,16.11,5.27,21.02,10.16,4.9,4.89,8.11,11.81,9.63,20.75,1.02,6.03,1.08,11.64.17,16.82-.91,5.18-2.73,9.8-5.48,13.85-2.75,4.05-6.38,7.45-10.91,10.19-4.53,2.75-9.86,4.64-16,5.68-12.73,2.16-25.27-.26-37.62-7.26l7.04-26.55c4.6,3.39,8.98,5.75,13.15,7.08,4.16,1.33,8.11,1.68,11.85,1.04,4.27-.72,7.26-2.41,8.96-5.05,1.7-2.64,2.31-5.42,1.81-8.33-.3-1.77-.83-3.25-1.58-4.47-.75-1.21-1.85-2.25-3.28-3.13s-3.23-1.62-5.39-2.22c-2.16-.6-4.76-1.22-7.8-1.89-3.59-.68-7.14-1.49-10.64-2.45-3.51-.96-6.73-2.47-9.69-4.54s-5.54-4.86-7.74-8.4c-2.2-3.53-3.79-8.21-4.78-14.03-.99-5.82-1.06-11.24-.21-16.25.84-5.01,2.47-9.46,4.88-13.34,2.41-3.88,5.61-7.13,9.61-9.73,4-2.6,8.67-4.36,14.01-5.26,4.98-.84,10.33-.92,16.03-.23,5.7.69,11.31,2.18,16.82,4.45l-6.37,25.63Z"></path></svg>